<svg width="239" height="43" viewBox="0 0 239 43" fill="none" xmlns="http://www.w3.org/2000/svg">
<path d="M36.2463 23.91C30.8594 23.91 26.4925 23.2591 26.4925 18.0341C26.4925 12.8092 30.8594 8.57361 36.2463 8.57361C41.6331 8.57361 46 7.67247 46 12.8974C46 18.1223 41.6331 23.91 36.2463 23.91Z" fill="#AD00FF"/>
<path d="M36.2463 18.9211C30.8594 18.9211 26.4934 23.3829 26.4934 18.158C26.4934 12.9331 30.8594 -2.28388e-07 36.2463 0C41.6331 2.28388e-07 46 7.67247 46 12.8974C46 18.1223 41.6331 18.9211 36.2463 18.9211Z" fill="#AD00FF"/>
<path d="M6.68029 23.8977C10.3697 23.8977 13.3606 23.2471 13.3606 18.0249C13.3606 12.8026 10.3697 8.5692 6.68029 8.5692C2.99087 8.5692 -5.57884e-07 7.66852 0 12.8907C5.57884e-07 18.113 2.99087 23.8977 6.68029 23.8977Z" fill="#AD00FF"/>
<path d="M6.68029 18.9113C10.3697 18.9113 13.36 23.3709 13.36 18.1486C13.36 12.9264 10.3697 3.51422e-06 6.68029 4.12718e-06C2.99087 4.74015e-06 -5.57884e-07 7.66852 0 12.8907C5.57884e-07 18.113 2.99087 18.9113 6.68029 18.9113Z" fill="#AD00FF"/>
<path d="M5.77102 35.7536C4.87908 32.5276 4.57075 29.8048 7.89953 28.9404C11.2283 28.076 14.6499 29.9904 15.5418 33.2164C16.4338 36.4423 17.731 38.9084 14.4022 39.7728C11.0734 40.6371 6.66297 38.9795 5.77102 35.7536Z" fill="#AD00FF"/>
<path d="M8.94948 34.9282C8.05753 31.7023 4.49199 29.8258 7.82077 28.9614C11.1496 28.097 20.1121 28.572 21.0041 31.798C21.896 35.0239 17.731 38.9084 14.4022 39.7728C11.0734 40.6371 9.84142 38.1542 8.94948 34.9282Z" fill="#AD00FF"/>
<path d="M104.405 2.08747V9.702C100.909 7.66197 97.8471 6.64196 95.2206 6.64196C92.594 6.64196 90.4927 7.51174 88.9168 9.2513C87.3409 10.9909 86.5529 13.3314 86.5529 16.2728C86.5529 19.0561 87.3819 21.2859 89.0399 22.9622C90.6979 24.6227 92.9141 25.4529 95.6884 25.4529C98.118 25.4529 101.024 24.512 104.405 22.6301V30.1735C100.613 31.3912 97.4531 32 94.9251 32C90.5748 32 86.8812 30.466 83.8443 27.3981C80.8073 24.3143 79.2888 20.5584 79.2888 16.1305C79.2888 11.6234 80.8319 7.81221 83.9181 4.69681C87.0208 1.5656 90.7882 0 95.2206 0C98.0769 0 101.139 0.695824 104.405 2.08747Z" fill="white"/>
<path d="M120.854 0.426983H126.247L139.445 31.573H132.452L129.817 25.4529H117.431L114.895 31.573H107.927L120.854 0.426983ZM123.563 10.6271L119.795 19.8073H127.453L123.563 10.6271Z" fill="white"/>
<path d="M144.321 0.426983H154.958C158.192 0.426983 160.745 1.24932 162.616 2.894C164.504 4.53867 165.448 6.76056 165.448 9.55967C165.448 11.1569 165.013 12.8174 164.143 14.5411C163.289 16.2649 161.705 17.617 159.391 18.5975L168.428 31.573H160.449L152.077 19.5226H151.289V31.573H144.321V0.426983ZM151.339 5.97776V14.0904H152.841C156.469 14.0904 158.283 12.6593 158.283 9.79689C158.283 8.62664 157.807 7.70151 156.854 7.0215C155.919 6.32567 154.614 5.97776 152.939 5.97776H151.339Z" fill="white"/>
<path d="M173.919 0.426983H180.838V24.8599H190.368V31.573H173.919V0.426983Z" fill="white"/>
<path d="M195.342 0.426983H213.539V6.59451H202.31V12.8807H213.539V18.9533H202.31V25.4055H213.539V31.573H195.342V0.426983Z" fill="white"/>
<path d="M120.854 0.426983H239V7.04522H231.588V31.573H224.62V7.04522L120.854 7.04522V0.426983Z" fill="white"/>
<path d="M74.364 3.24982L70.0302 7.82802C67.7484 6.53126 66.1068 5.88288 65.1054 5.88288C64.3339 5.88288 63.669 6.16753 63.1109 6.73684C62.5527 7.29034 62.2737 7.95453 62.2737 8.72943C62.2737 10.2634 63.7183 11.5918 66.6075 12.7146C68.7251 13.5844 70.3257 14.3751 71.4092 15.0867C72.4926 15.7826 73.3955 16.7551 74.1178 18.0044C74.8565 19.2538 75.2259 20.6059 75.2259 22.0608C75.2259 24.7334 74.1014 27.0581 71.8524 29.0348C69.6198 31.0116 66.9768 32 63.9235 32C60.5746 32 57.2668 30.4818 54 27.4455L58.5801 22.298C60.6321 24.338 62.5527 25.358 64.3421 25.358C65.1793 25.358 65.9837 25.0022 66.7552 24.2906C67.5268 23.5631 67.9126 22.8041 67.9126 22.0133C67.9126 20.3845 66.1314 18.9533 62.5691 17.7198C60.5336 17.0082 59.089 16.344 58.2353 15.7272C57.3817 15.0946 56.6594 14.1853 56.0684 12.9993C55.4939 11.7974 55.2066 10.5718 55.2066 9.32246C55.2066 6.55498 56.1423 4.30937 58.0137 2.58562C59.8851 0.861873 62.3311 0 65.3517 0C68.9303 0 71.9345 1.08327 74.364 3.24982Z" fill="white"/>
<path d="M81 35.3059H84.6631V36.3102H81.8924V38.1457H84.6631V39.1385H81.8924V41.6667H84.6631V42.6595H81V35.3059Z" fill="white"/>
<path d="M91.185 35L92.9906 42.6595H92.1085L91.0138 37.9784L89.1303 42.9423L87.2417 37.9437L86.1366 42.6595H85.2546L87.0601 35L89.1303 40.4834L91.185 35Z" fill="white"/>
<path d="M94.1424 35.3059H95.4707C96.2213 35.3059 96.8266 35.5022 97.2866 35.8947C97.7467 36.2872 97.9767 36.797 97.9767 37.4242C97.9767 38.0553 97.7328 38.5844 97.2451 39.0115C96.7609 39.4387 96.0241 39.6465 95.0348 39.6349V42.6595H94.1424V35.3059ZM95.0348 36.1833V38.7576C95.7128 38.7499 96.2144 38.6441 96.5395 38.4401C96.8681 38.2323 97.0324 37.9014 97.0324 37.4473C97.0324 37.1049 96.9079 36.8086 96.6588 36.5584C96.4132 36.3083 95.8719 36.1833 95.0348 36.1833Z" fill="white"/>
<path d="M98.9677 38.9365C98.9677 37.8745 99.3274 36.9644 100.047 36.2063C100.766 35.4483 101.631 35.0693 102.641 35.0693C103.627 35.0693 104.476 35.4521 105.189 36.2179C105.901 36.9798 106.258 37.886 106.258 38.9365C106.258 40.0486 105.905 40.9894 105.199 41.759C104.497 42.5248 103.634 42.9076 102.61 42.9076C101.6 42.9076 100.74 42.5209 100.031 41.7475C99.3223 40.974 98.9677 40.037 98.9677 38.9365ZM105.298 38.9827C105.298 38.1708 105.035 37.4877 104.509 36.9336C103.983 36.3757 103.336 36.0967 102.569 36.0967C101.839 36.0967 101.213 36.3795 100.69 36.9452C100.171 37.5108 99.912 38.19 99.912 38.9827C99.912 39.7869 100.178 40.468 100.711 41.026C101.247 41.5801 101.903 41.8571 102.677 41.8571C103.39 41.8571 104.004 41.5743 104.519 41.0087C105.038 40.4392 105.298 39.7638 105.298 38.9827Z" fill="white"/>
<path d="M111.835 35.0231L113.962 40.4488L115.96 35.3175H116.894L113.962 42.8846L111.835 37.4473L109.708 42.8846L106.776 35.3175H107.71L109.718 40.4949L111.835 35.0231Z" fill="white"/>
<path d="M117.776 35.3059H121.439V36.3102H118.668V38.1457H121.439V39.1385H118.668V41.6667H121.439V42.6595H117.776V35.3059Z" fill="white"/>
<path d="M122.648 35.3059H124.08C124.792 35.3059 125.372 35.5041 125.818 35.9004C126.268 36.2929 126.493 36.797 126.493 37.4127C126.493 37.9052 126.347 38.3401 126.057 38.7172C125.766 39.0943 125.313 39.3598 124.697 39.5137L126.622 42.6595H125.59L123.753 39.6349H123.551V42.6595H122.648V35.3059ZM123.551 36.1948V38.7576C124.882 38.7884 125.548 38.3593 125.548 37.4704C125.548 37.1587 125.47 36.9048 125.315 36.7085C125.159 36.5084 124.952 36.3737 124.692 36.3045C124.433 36.2314 124.052 36.1948 123.551 36.1948Z" fill="white"/>
<path d="M127.81 35.3059H128.703V42.6595H127.81V35.3059Z" fill="white"/>
<path d="M130.104 35.0115L134.991 40.6046V35.3059H135.894V43L131.007 37.4358V42.6595H130.104V35.0115Z" fill="white"/>
<path d="M143.63 36.4776L142.961 37.2107C142.286 36.4757 141.506 36.1082 140.621 36.1082C139.846 36.1082 139.201 36.3853 138.686 36.9394C138.17 37.4935 137.912 38.1861 137.912 39.0173C137.912 39.7446 138.161 40.4007 138.66 40.9856C139.161 41.5666 139.851 41.8571 140.73 41.8571C142.048 41.8571 142.876 41.2184 143.215 39.9408H141.43V38.9365H144.248C144.248 39.4406 144.216 39.8427 144.154 40.1429C144.095 40.443 143.971 40.7739 143.781 41.1356C143.59 41.4974 143.336 41.8225 143.018 42.1111C142.703 42.3959 142.364 42.5998 142.001 42.7229C141.641 42.8461 141.211 42.9076 140.709 42.9076C139.568 42.9076 138.656 42.5094 137.975 41.7128C137.297 40.9125 136.958 39.9986 136.958 38.9711C136.958 37.8899 137.305 36.9702 138.001 36.2121C138.696 35.4502 139.538 35.0693 140.527 35.0693C141.115 35.0693 141.652 35.1693 142.136 35.3694C142.624 35.5657 143.122 35.9351 143.63 36.4776Z" fill="white"/>
<path d="M154.355 35.5541V36.6912C153.634 36.3025 152.971 36.1082 152.366 36.1082C151.59 36.1082 150.936 36.3853 150.404 36.9394C149.873 37.4897 149.607 38.1669 149.607 38.9711C149.607 39.7908 149.878 40.4757 150.42 41.026C150.966 41.5724 151.648 41.8456 152.466 41.8456C153.061 41.8456 153.69 41.6397 154.355 41.228V42.3766C153.75 42.7306 153.094 42.9076 152.387 42.9076C151.352 42.9076 150.467 42.5228 149.733 41.7532C148.998 40.9798 148.631 40.0486 148.631 38.9596C148.631 37.8899 148.991 36.974 149.712 36.2121C150.436 35.4502 151.307 35.0693 152.324 35.0693C152.978 35.0693 153.655 35.2309 154.355 35.5541Z" fill="white"/>
<path d="M155.168 38.9365C155.168 37.8745 155.531 36.9644 156.259 36.2063C156.986 35.4483 157.861 35.0693 158.882 35.0693C159.879 35.0693 160.737 35.4521 161.458 36.2179C162.178 36.9798 162.538 37.886 162.538 38.9365C162.538 40.0486 162.182 40.9894 161.468 41.759C160.758 42.5248 159.886 42.9076 158.85 42.9076C157.829 42.9076 156.96 42.5209 156.243 41.7475C155.526 40.974 155.168 40.037 155.168 38.9365ZM161.568 38.9827C161.568 38.1708 161.302 37.4877 160.771 36.9336C160.239 36.3757 159.585 36.0967 158.809 36.0967C158.071 36.0967 157.438 36.3795 156.909 36.9452C156.385 37.5108 156.123 38.19 156.123 38.9827C156.123 39.7869 156.392 40.468 156.93 41.026C157.473 41.5801 158.135 41.8571 158.919 41.8571C159.639 41.8571 160.26 41.5743 160.781 41.0087C161.306 40.4392 161.568 39.7638 161.568 38.9827Z" fill="white"/>
<path d="M169.248 35L171.074 42.6595H170.182L169.075 37.9784L167.171 42.9423L165.261 37.9437L164.144 42.6595H163.252L165.078 35L167.171 40.4834L169.248 35Z" fill="white"/>
<path d="M177.537 35L179.363 42.6595H178.471L177.364 37.9784L175.46 42.9423L173.55 37.9437L172.433 42.6595H171.541L173.366 35L175.46 40.4834L177.537 35Z" fill="white"/>
<path d="M180.281 35.3175H181.194V39.8369C181.194 40.5065 181.339 41.024 181.629 41.3896C181.923 41.7552 182.337 41.938 182.872 41.938C183.404 41.938 183.817 41.7706 184.11 41.4358C184.408 41.0972 184.556 40.6219 184.556 40.0101V35.3175H185.469V39.9408C185.469 40.8413 185.235 41.5608 184.766 42.0996C184.301 42.6383 183.68 42.9076 182.904 42.9076C182.11 42.9076 181.473 42.6344 180.994 42.088C180.519 41.5416 180.281 40.7354 180.281 39.6696V35.3175Z" fill="white"/>
<path d="M186.755 35.0115L191.696 40.6046V35.3059H192.609V43L187.667 37.4358V42.6595H186.755V35.0115Z" fill="white"/>
<path d="M193.963 35.3059H194.865V42.6595H193.963V35.3059Z" fill="white"/>
<path d="M195.925 35.3059H200.011V36.3102H198.417V42.6595H197.514V36.3102H195.925V35.3059Z" fill="white"/>
<path d="M200.971 35.3059H204.675V36.3102H201.874V38.1457H204.675V39.1385H201.874V41.6667H204.675V42.6595H200.971V35.3059Z" fill="white"/>
<path d="M209.837 36.1198L209.098 36.772C208.902 36.5488 208.723 36.3834 208.563 36.2756C208.405 36.164 208.176 36.1082 207.875 36.1082C207.547 36.1082 207.279 36.191 207.073 36.3564C206.87 36.518 206.768 36.7278 206.768 36.9856C206.768 37.2088 206.858 37.4069 207.036 37.5801C207.214 37.7494 207.519 37.936 207.949 38.14C208.379 38.3401 208.713 38.5286 208.951 38.7056C209.192 38.8788 209.39 39.0712 209.544 39.2828C209.697 39.4945 209.811 39.7177 209.885 39.9524C209.962 40.1871 210 40.4353 210 40.697C210 41.3088 209.797 41.8302 209.391 42.2612C208.989 42.6922 208.501 42.9076 207.928 42.9076C207.368 42.9076 206.873 42.7403 206.443 42.4055C206.016 42.0669 205.688 41.5608 205.457 40.8874L206.37 40.6046C206.702 41.4319 207.211 41.8456 207.896 41.8456C208.229 41.8456 208.505 41.7359 208.725 41.5166C208.946 41.2973 209.056 41.0202 209.056 40.6854C209.056 40.4853 208.998 40.2852 208.883 40.0851C208.767 39.8812 208.624 39.7138 208.452 39.583C208.281 39.4521 208.006 39.304 207.629 39.1385C207.255 38.9692 206.966 38.8153 206.763 38.6768C206.564 38.5344 206.391 38.367 206.244 38.1746C206.097 37.9784 205.988 37.784 205.919 37.5916C205.852 37.3992 205.819 37.1934 205.819 36.974C205.819 36.4468 206.011 35.9986 206.396 35.6291C206.781 35.2559 207.248 35.0693 207.797 35.0693C208.16 35.0693 208.529 35.1558 208.904 35.329C209.278 35.5022 209.589 35.7658 209.837 36.1198Z" fill="white"/>
</svg>
